# xmcd
# 
# Track frame offsets:
#     150
#     11423
#     24721
#     36853
#     48456
#     58277
#     71133
#     82511
#     93194
#     105579
#     115815
#     124534
#     136751
#     148578
#     158925
#     170500
# 
# Disc length: 2435
# 
# Revision: 2
# Processed by: cddbd v1.5.2PL0 Copyright (c) Steve Scherf et al.
# Submitted via: BonkEnc v1.0.15
# 
DISCID=ce098110
DTITLE=Johnny Cash - Country Boy
DYEAR=2010
DGENRE=
TTITLE0=Cry! Cry! Cry!
TTITLE1=Folsom Prison Blues
TTITLE2=So Gone Lonesome
TTITLE3=Mean Eyed Cat
TTITLE4=New Mexico
TTITLE5=I Walk The Line
TTITLE6=I Love You Because
TTITLE7=Straight As In Love
TTITLE8=Home Of The Blues
TTITLE9=Rock Island Line
TTITLE10=Country Boy
TTITLE11=Doin' My Time
TTITLE12=Big River
TTITLE13=Ballad Of A Teenage Queen
TTITLE14=Oh Lonesome Me
TTITLE15=You're The Nearest Thing To Heaven
EXTD=
EXTT0=
EXTT1=
EXTT2=
EXTT3=
EXTT4=
EXTT5=
EXTT6=
EXTT7=
EXTT8=
EXTT9=
EXTT10=
EXTT11=
EXTT12=
EXTT13=
EXTT14=
EXTT15=
PLAYORDER=
